PathFileType	4	(X/Y/Z)	/Users/niels/Desktop/University/Third Semester/Perception and Action/Exam/Gymnastics Motion Tracking/Code for Gym Tracking/Analyzed Data/Webcam_Backflip/id7_2_trajectory_Sports2D/id7_2_trajectory_Sports2D_px_person00.trc
DataRate	CameraRate	NumFrames	NumMarkers	Units	OrigDataRate	OrigDataStartFrame	OrigNumFrames
29.75	29.75	7	22	m	29.75	30	120
Frame#	Time	Hip			RHip			RKnee			RAnkle			RBigToe			RSmallToe			RHeel			LHip			LKnee			LAnkle			LBigToe			LSmallToe			LHeel			Neck			Head			Nose			RShoulder			RElbow			RWrist			LShoulder			LElbow			LWrist		
		X1	Y1	Z1	X2	Y2	Z2	X3	Y3	Z3	X4	Y4	Z4	X5	Y5	Z5	X6	Y6	Z6	X7	Y7	Z7	X8	Y8	Z8	X9	Y9	Z9	X10	Y10	Z10	X11	Y11	Z11	X12	Y12	Z12	X13	Y13	Z13	X14	Y14	Z14	X15	Y15	Z15	X16	Y16	Z16	X17	Y17	Z17	X18	Y18	Z18	X19	Y19	Z19	X20	Y20	Z20	X21	Y21	Z21	X22	Y22	Z22
30	1.0084033613445378	0.8859811890353977	-0.4654640795451304	0.0	0.879970282684844	-0.4621823753970635	0.0	0.8878094402130671	-0.6952854383576446	0.0	0.8699174646382604	-0.9178542138909611	0.0	0.9716304723019824	-0.9535070178556023	0.0	0.9529197797312484	-0.9672453313062913	0.0	0.852009718494349	-0.950712218769129	0.0	0.9036029047267807	-0.4648180518726182	0.0	0.8968275759622533	-0.6845897799274818	0.0	0.8832822923116811	-0.8815098033615989	0.0	0.9732433984532183	-0.91053277479435	0.0	0.9587329820402178	-0.9005815709817317	0.0	0.8580328775192615	-0.9123296191510991	0.0	0.9208912136399553	-0.136969598913716	0.0	0.9617463660942488	3.639404365597186e-05	0.0	0.9701051986082071	-0.08470289505276614	0.0	0.8839848511101366	-0.17046687159754986	0.0	1.048966375001036	-0.1311238665481231	0.0	1.164359047671502	-0.03807998321419624	0.0	0.9376986181324246	-0.18794381163472584	0.0	0.9975858518632919	-0.32854923384868945	0.0	1.115674957198469	-0.36635340773902736	0.0
31	1.042016806722689	0.8860930172464392	-0.46587768506615906	0.0	0.8793251551080074	-0.4626334948661296	0.0	0.8874931683205901	-0.6956861416855412	0.0	0.8697085898548366	-0.9182716789664336	0.0	0.9713908441297696	-0.9538428971899849	0.0	0.9526925347059577	-0.9680755393160098	0.0	0.8516787875890708	-0.9513321979287757	0.0	0.9042376778863799	-0.4652155152081221	0.0	0.8972150847185254	-0.6846144363001797	0.0	0.8834400408923083	-0.8819058772742943	0.0	0.9735164524259243	-0.9106901004432217	0.0	0.9591858097989872	-0.90105794440786	0.0	0.8585430167314465	-0.9130123562655613	0.0	0.9217754106052554	-0.13682319593024364	0.0	0.9623818013418359	0.0008048768410655595	0.0	0.970673523932583	-0.08401923032016546	0.0	0.884112414103281	-0.17066293912858738	0.0	1.0503586918883756	-0.13410029135081886	0.0	1.167691569314483	-0.042684042595944216	0.0	0.9396055050663457	-0.18889887400204222	0.0	0.9986848885169347	-0.3303077428665496	0.0	1.1173987818479643	-0.3680930110377214	0.0
32	1.0756302521008403	0.8859990604312197	-0.46617481434793245	0.0	0.8787497588572603	-0.46274824981296914	0.0	0.8873761664781149	-0.6961100913657059	0.0	0.8695733700204401	-0.9185527927382791	0.0	0.9710714290363781	-0.9539194431082904	0.0	0.9520910896330584	-0.9686133710434877	0.0	0.8512828444820807	-0.9517157196624455	0.0	0.9043998217549666	-0.46525083322597394	0.0	0.8972662989676139	-0.6845262702122396	0.0	0.8831218896285054	-0.8821649459835929	0.0	0.9734196995543309	-0.9103463563989898	0.0	0.9592517537108839	-0.9014252403841287	0.0	0.8586920759055454	-0.9137432971611669	0.0	0.9225977332324571	-0.1368561566447365	0.0	0.9632826871942793	0.0016208091240618877	0.0	0.971760761777021	-0.08351945558018689	0.0	0.884442210314968	-0.17100689456333626	0.0	1.0518001875991243	-0.13791715719014408	0.0	1.1719883632068082	-0.048584333654594164	0.0	0.9413902344334012	-0.18991091085156236	0.0	0.999815098290776	-0.33215828928738395	0.0	1.1190677842624017	-0.36971299583938694	0.0
33	1.1092436974789917	0.8857003386403214	-0.466382854869318	0.0	0.8781979179083709	-0.4626727280006185	0.0	0.887505473336721	-0.6966830416111073	0.0	0.8695239937854626	-0.9187870464875154	0.0	0.9706477324401425	-0.9537511045143011	0.0	0.9511072918668525	-0.9687910925972153	0.0	0.8508853276652786	-0.9519327728677894	0.0	0.9040529967474148	-0.4650208863048162	0.0	0.8968119659046576	-0.6845991467951505	0.0	0.8821988647468284	-0.8825843577820772	0.0	0.9729217250422866	-0.909551111003254	0.0	0.9589206001204456	-0.901642448943713	0.0	0.858490539563706	-0.914685723857066	0.0	0.9232149872902696	-0.13711259175947205	0.0	0.9642780716260536	0.0023253639726637052	0.0	0.9733580797759426	-0.08339463101179177	0.0	0.8848420495032362	-0.17155628390788366	0.0	1.05318583686746	-0.14273731552597754	0.0	1.1770814197372694	-0.056202138393780444	0.0	0.9428317874811295	-0.19083506364094122	0.0	1.0006567156612598	-0.33399794233509633	0.0	1.1202274459157224	-0.37126293088820767	0.0
34	1.1428571428571428	0.8852863818603233	-0.4666430928297677	0.0	0.8775726109906559	-0.4626908414819072	0.0	0.8879033418926576	-0.6975121019194339	0.0	0.8695670474472624	-0.9191248107663237	0.0	0.9700879054372666	-0.9534627464171228	0.0	0.9498213646009495	-0.9686461959189044	0.0	0.8505299929643432	-0.9520976851829035	0.0	0.9032764964814434	-0.4648563837557359	0.0	0.8959091377861399	-0.6851405281898431	0.0	0.8807802307856478	-0.8833715799507841	0.0	0.9719594343246033	-0.9086344354051199	0.0	0.9582702574293867	-0.9017639373910182	0.0	0.8580523688230576	-0.9158545819745626	0.0	0.9235288055228242	-0.1375373809668896	0.0	0.9651222324280635	0.002750483226733312	0.0	0.9751934608840832	-0.08372487719077429	0.0	0.8850472025886836	-0.17237683806829934	0.0	1.0543260759990374	-0.1488484566826988	0.0	1.1827492377994568	-0.0658554785769849	0.0	0.9437524449219924	-0.1914454550219755	0.0	1.0010632923105025	-0.335738158603393	0.0	1.1206316858012992	-0.3727923416889742	0.0
35	1.1764705882352942	0.884874458975328	-0.46704816453066994	0.0	0.8768554496595728	-0.4629527892534023	0.0	0.8885799184377431	-0.6985423606943352	0.0	0.8697209408521607	-0.9196453659368701	0.0	0.9693749278914698	-0.9532587698328852	0.0	0.9483139819074728	-0.9683444105741605	0.0	0.8502318933890125	-0.9522956400781385	0.0	0.9021304595279012	-0.4649937574785998	0.0	0.8947737891993662	-0.6862044801658737	0.0	0.8791162922969644	-0.8844746323431039	0.0	0.9704812148664541	-0.9079200043253312	0.0	0.9574450693375549	-0.9018506094942794	0.0	0.8575303529077352	-0.9170623045042426	0.0	0.923507055400812	-0.13806387885128393	0.0	0.96563888529064	0.0028409093674635275	0.0	0.9768410508871719	-0.08445257678466667	0.0	0.8849272791501861	-0.1735671254536508	0.0	1.0550764755098108	-0.1564838058212232	0.0	1.1888084723289467	-0.07770835838199298	0.0	0.9438469414213925	-0.19150342364442735	0.0	1.0009729726123595	-0.33739845195181606	0.0	1.12023890611256	-0.3743449058360008	0.0
36	1.2100840336134453	0.8845300111942128	-0.46752180663347165	0.0	0.8761506543739686	-0.4633591311854402	0.0	0.8894927142442405	-0.6995294396046229	0.0	0.8699833997416583	-0.9202600688769778	0.0	0.968640127077798	-0.9533037947566938	0.0	0.9467791275453215	-0.9680876184215498	0.0	0.8500180216792508	-0.9525333984766491	0.0	0.9005572036972047	-0.46537433656924077	0.0	0.8937100029406685	-0.6875321030872917	0.0	0.8775390895691115	-0.8856497459232784	0.0	0.9686864215812323	-0.9076167861310971	0.0	0.9567466956202025	-0.9020017200180358	0.0	0.8571144548320686	-0.9180037019997664	0.0	0.9231541929119318	-0.13864159950403002	0.0	0.9658662982544235	0.002681085829573754	0.0	0.9779525899922739	-0.08540783411637855	0.0	0.8846289381922191	-0.17522290616911426	0.0	1.055438804640894	-0.16562563757006962	0.0	1.1951047931306307	-0.09182761459700153	0.0	0.9426825183700906	-0.1909272316704794	0.0	1.0004176013852777	-0.339084085168795	0.0	1.1191879760622094	-0.37596731107591486	0.0
